<?xml version="1.0" encoding="UTF-8"?>
<mxfile host="app.diagrams.net" modified="2024-01-01T00:00:00.000Z" agent="draw.io" etag="xxx" version="22.1.11" type="device">
  <diagram name="AI编程助手赋能开发运维" id="ai-programming-assistant">
    <mxGraphModel dx="1422" dy="794" grid="1" gridSize="10" guides="1" tooltips="1" connect="1" arrows="1" fold="1" page="1" pageScale="1" pageWidth="827" pageHeight="1169" math="0" shadow="0">
      <root>
        <mxCell id="0" />
        <mxCell id="1" parent="0" />
        
        <!-- 标题 -->
        <mxCell id="title" value="AI编程助手赋能开发运维全流程" style="text;html=1;strokeColor=none;fillColor=none;align=center;verticalAlign=middle;whiteSpace=wrap;rounded=0;fontSize=18;fontStyle=1;" parent="1" vertex="1">
          <mxGeometry x="250" y="20" width="320" height="30" as="geometry" />
        </mxCell>
        
        <!-- 开发流程阶段 -->
        <!-- 需求分析 -->
        <mxCell id="requirement-analysis" value="需求分析&#xa;AI需求理解&#xa;自动拆解&#xa;优先级排序" style="rounded=1;whiteSpace=wrap;html=1;fillColor=#dae8fc;strokeColor=#6c8ebf;fontSize=11;fontStyle=1;verticalAlign=top;spacingTop=10;" parent="1" vertex="1">
          <mxGeometry x="40" y="80" width="120" height="100" as="geometry" />
        </mxCell>
        
        <!-- 架构设计 -->
        <mxCell id="architecture-design" value="架构设计&#xa;AI架构建议&#xa;最佳实践&#xa;风险评估" style="rounded=1;whiteSpace=wrap;html=1;fillColor=#fff2cc;strokeColor=#d6b656;fontSize=11;fontStyle=1;verticalAlign=top;spacingTop=10;" parent="1" vertex="1">
          <mxGeometry x="200" y="80" width="120" height="100" as="geometry" />
        </mxCell>
        
        <!-- 代码开发 -->
        <mxCell id="code-development" value="代码开发&#xa;AI代码生成&#xa;智能补全&#xa;代码审查" style="rounded=1;whiteSpace=wrap;html=1;fillColor=#f8cecc;strokeColor=#b85450;fontSize=11;fontStyle=1;verticalAlign=top;spacingTop=10;" parent="1" vertex="1">
          <mxGeometry x="360" y="80" width="120" height="100" as="geometry" />
        </mxCell>
        
        <!-- 测试验证 -->
        <mxCell id="testing" value="测试验证&#xa;AI测试生成&#xa;缺陷检测&#xa;性能测试" style="rounded=1;whiteSpace=wrap;html=1;fillColor=#e1d5e7;strokeColor=#9673a6;fontSize=11;fontStyle=1;verticalAlign=top;spacingTop=10;" parent="1" vertex="1">
          <mxGeometry x="520" y="80" width="120" height="100" as="geometry" />
        </mxCell>
        
        <!-- 部署运维 -->
        <mxCell id="deployment-ops" value="部署运维&#xa;AI运维脚本&#xa;智能监控&#xa;自动修复" style="rounded=1;whiteSpace=wrap;html=1;fillColor=#d5e8d4;strokeColor=#82b366;fontSize=11;fontStyle=1;verticalAlign=top;spacingTop=10;" parent="1" vertex="1">
          <mxGeometry x="680" y="80" width="120" height="100" as="geometry" />
        </mxCell>
        
        <!-- 流程箭头 -->
        <mxCell id="flow1" value="" style="edgeStyle=orthogonalEdgeStyle;rounded=0;orthogonalLoop=1;jettySize=auto;html=1;strokeWidth=2;fillColor=#666666;strokeColor=#666666;" parent="1" source="requirement-analysis" target="architecture-design" edge="1">
          <mxGeometry relative="1" as="geometry" />
        </mxCell>
        
        <mxCell id="flow2" value="" style="edgeStyle=orthogonalEdgeStyle;rounded=0;orthogonalLoop=1;jettySize=auto;html=1;strokeWidth=2;fillColor=#666666;strokeColor=#666666;" parent="1" source="architecture-design" target="code-development" edge="1">
          <mxGeometry relative="1" as="geometry" />
        </mxCell>
        
        <mxCell id="flow3" value="" style="edgeStyle=orthogonalEdgeStyle;rounded=0;orthogonalLoop=1;jettySize=auto;html=1;strokeWidth=2;fillColor=#666666;strokeColor=#666666;" parent="1" source="code-development" target="testing" edge="1">
          <mxGeometry relative="1" as="geometry" />
        </mxCell>
        
        <mxCell id="flow4" value="" style="edgeStyle=orthogonalEdgeStyle;rounded=0;orthogonalLoop=1;jettySize=auto;html=1;strokeWidth=2;fillColor=#666666;strokeColor=#666666;" parent="1" source="testing" target="deployment-ops" edge="1">
          <mxGeometry relative="1" as="geometry" />
        </mxCell>
        
        <!-- 效果指标 -->
        <mxCell id="effect-1" value="需求准确性&#xa;提升90%" style="rounded=1;whiteSpace=wrap;html=1;fillColor=#c8e6c9;strokeColor=#4caf50;fontSize=10;fontStyle=2;" parent="1" vertex="1">
          <mxGeometry x="60" y="220" width="80" height="40" as="geometry" />
        </mxCell>
        
        <mxCell id="effect-2" value="架构合理性&#xa;提升80%" style="rounded=1;whiteSpace=wrap;html=1;fillColor=#c8e6c9;strokeColor=#4caf50;fontSize=10;fontStyle=2;" parent="1" vertex="1">
          <mxGeometry x="220" y="220" width="80" height="40" as="geometry" />
        </mxCell>
        
        <mxCell id="effect-3" value="代码质量&#xa;提升85%" style="rounded=1;whiteSpace=wrap;html=1;fillColor=#c8e6c9;strokeColor=#4caf50;fontSize=10;fontStyle=2;" parent="1" vertex="1">
          <mxGeometry x="380" y="220" width="80" height="40" as="geometry" />
        </mxCell>
        
        <mxCell id="effect-4" value="测试覆盖率&#xa;提升90%" style="rounded=1;whiteSpace=wrap;html=1;fillColor=#c8e6c9;strokeColor=#4caf50;fontSize=10;fontStyle=2;" parent="1" vertex="1">
          <mxGeometry x="540" y="220" width="80" height="40" as="geometry" />
        </mxCell>
        
        <mxCell id="effect-5" value="运维效率&#xa;提升95%" style="rounded=1;whiteSpace=wrap;html=1;fillColor=#c8e6c9;strokeColor=#4caf50;fontSize=10;fontStyle=2;" parent="1" vertex="1">
          <mxGeometry x="700" y="220" width="80" height="40" as="geometry" />
        </mxCell>
        
        <!-- 效果连接线 -->
        <mxCell id="effect-flow1" value="" style="edgeStyle=orthogonalEdgeStyle;rounded=0;orthogonalLoop=1;jettySize=auto;html=1;strokeWidth=1;fillColor=#4caf50;strokeColor=#4caf50;dashed=1;" parent="1" source="requirement-analysis" target="effect-1" edge="1">
          <mxGeometry relative="1" as="geometry" />
        </mxCell>
        
        <mxCell id="effect-flow2" value="" style="edgeStyle=orthogonalEdgeStyle;rounded=0;orthogonalLoop=1;jettySize=auto;html=1;strokeWidth=1;fillColor=#4caf50;strokeColor=#4caf50;dashed=1;" parent="1" source="architecture-design" target="effect-2" edge="1">
          <mxGeometry relative="1" as="geometry" />
        </mxCell>
        
        <mxCell id="effect-flow3" value="" style="edgeStyle=orthogonalEdgeStyle;rounded=0;orthogonalLoop=1;jettySize=auto;html=1;strokeWidth=1;fillColor=#4caf50;strokeColor=#4caf50;dashed=1;" parent="1" source="code-development" target="effect-3" edge="1">
          <mxGeometry relative="1" as="geometry" />
        </mxCell>
        
        <mxCell id="effect-flow4" value="" style="edgeStyle=orthogonalEdgeStyle;rounded=0;orthogonalLoop=1;jettySize=auto;html=1;strokeWidth=1;fillColor=#4caf50;strokeColor=#4caf50;dashed=1;" parent="1" source="testing" target="effect-4" edge="1">
          <mxGeometry relative="1" as="geometry" />
        </mxCell>
        
        <mxCell id="effect-flow5" value="" style="edgeStyle=orthogonalEdgeStyle;rounded=0;orthogonalLoop=1;jettySize=auto;html=1;strokeWidth=1;fillColor=#4caf50;strokeColor=#4caf50;dashed=1;" parent="1" source="deployment-ops" target="effect-5" edge="1">
          <mxGeometry relative="1" as="geometry" />
        </mxCell>
        
        <!-- AI工具层 -->
        <mxCell id="ai-tools-layer" value="AI编程助手工具集" style="rounded=1;whiteSpace=wrap;html=1;fillColor=#fff3e0;strokeColor=#ff9800;fontSize=14;fontStyle=1;verticalAlign=top;spacingTop=10;" parent="1" vertex="1">
          <mxGeometry x="40" y="320" width="760" height="80" as="geometry" />
        </mxCell>
        
        <mxCell id="github-copilot" value="GitHub Copilot&#xa;智能代码补全" style="rounded=1;whiteSpace=wrap;html=1;fillColor=#e3f2fd;strokeColor=#2196f3;fontSize=10;" parent="1" vertex="1">
          <mxGeometry x="70" y="350" width="100" height="40" as="geometry" />
        </mxCell>
        
        <mxCell id="chatgpt" value="ChatGPT&#xa;代码生成" style="rounded=1;whiteSpace=wrap;html=1;fillColor=#e3f2fd;strokeColor=#2196f3;fontSize=10;" parent="1" vertex="1">
          <mxGeometry x="200" y="350" width="100" height="40" as="geometry" />
        </mxCell>
        
        <mxCell id="codewhisperer" value="CodeWhisperer&#xa;安全代码生成" style="rounded=1;whiteSpace=wrap;html=1;fillColor=#e3f2fd;strokeColor=#2196f3;fontSize=10;" parent="1" vertex="1">
          <mxGeometry x="330" y="350" width="100" height="40" as="geometry" />
        </mxCell>
        
        <mxCell id="sonarqube" value="SonarQube AI&#xa;代码质量分析" style="rounded=1;whiteSpace=wrap;html=1;fillColor=#e3f2fd;strokeColor=#2196f3;fontSize=10;" parent="1" vertex="1">
          <mxGeometry x="460" y="350" width="100" height="40" as="geometry" />
        </mxCell>
        
        <mxCell id="local-llm" value="本地LLM&#xa;私有化部署" style="rounded=1;whiteSpace=wrap;html=1;fillColor=#e3f2fd;strokeColor=#2196f3;fontSize=10;" parent="1" vertex="1">
          <mxGeometry x="590" y="350" width="100" height="40" as="geometry" />
        </mxCell>
        
        <mxCell id="custom-tools" value="定制工具&#xa;专业化AI助手" style="rounded=1;whiteSpace=wrap;html=1;fillColor=#e3f2fd;strokeColor=#2196f3;fontSize=10;" parent="1" vertex="1">
          <mxGeometry x="720" y="350" width="100" height="40" as="geometry" />
        </mxCell>
        
        <!-- 工具连接线 -->
        <mxCell id="tool-flow1" value="" style="edgeStyle=orthogonalEdgeStyle;rounded=0;orthogonalLoop=1;jettySize=auto;html=1;strokeWidth=1;fillColor=#2196f3;strokeColor=#2196f3;dashed=1;" parent="1" source="github-copilot" target="code-development" edge="1">
          <mxGeometry relative="1" as="geometry" />
        </mxCell>
        
        <mxCell id="tool-flow2" value="" style="edgeStyle=orthogonalEdgeStyle;rounded=0;orthogonalLoop=1;jettySize=auto;html=1;strokeWidth=1;fillColor=#2196f3;strokeColor=#2196f3;dashed=1;" parent="1" source="chatgpt" target="architecture-design" edge="1">
          <mxGeometry relative="1" as="geometry" />
        </mxCell>
        
        <mxCell id="tool-flow3" value="" style="edgeStyle=orthogonalEdgeStyle;rounded=0;orthogonalLoop=1;jettySize=auto;html=1;strokeWidth=1;fillColor=#2196f3;strokeColor=#2196f3;dashed=1;" parent="1" source="sonarqube" target="testing" edge="1">
          <mxGeometry relative="1" as="geometry" />
        </mxCell>
        
        <!-- 效率提升汇总 -->
        <mxCell id="efficiency-summary" value="整体开发效率提升：300-500%" style="rounded=1;whiteSpace=wrap;html=1;fillColor=#ffeb3b;strokeColor=#f57f17;fontSize=16;fontStyle=1;" parent="1" vertex="1">
          <mxGeometry x="240" y="450" width="300" height="50" as="geometry" />
        </mxCell>
        
        <!-- 效率汇总连接线 -->
        <mxCell id="summary-flow" value="" style="edgeStyle=orthogonalEdgeStyle;rounded=0;orthogonalLoop=1;jettySize=auto;html=1;strokeWidth=2;fillColor=#ff9800;strokeColor=#ff9800;" parent="1" source="ai-tools-layer" target="efficiency-summary" edge="1">
          <mxGeometry relative="1" as="geometry" />
        </mxCell>
        
      </root>
    </mxGraphModel>
  </diagram>
</mxfile>
